<svg width="36" height="36" viewBox="0 0 36 36" fill="none" xmlns="http://www.w3.org/2000/svg">
<path d="M32 20V30C32 31.1 31.1 32 30 32H6C4.9 32 4 31.1 4 30V20C4 18.9 3.1 18 2 18C0.9 18 0 18.9 0 20V32C0 34.2 1.8 36 4 36H32C34.2 36 36 34.2 36 32V20C36 18.9 35.1 18 34 18C32.9 18 32 18.9 32 20ZM20 19.34L23.76 15.58C23.9452 15.3948 24.165 15.248 24.4069 15.1477C24.6488 15.0475 24.9081 14.996 25.17 14.996C25.4319 14.996 25.6912 15.0475 25.9331 15.1477C26.175 15.248 26.3948 15.3948 26.58 15.58C26.7652 15.7652 26.912 15.985 27.0123 16.2269C27.1125 16.4688 27.164 16.7281 27.164 16.99C27.164 17.2519 27.1125 17.5112 27.0123 17.7531C26.912 17.995 26.7652 18.2148 26.58 18.4L19.4 25.58C19.215 25.7654 18.9952 25.9125 18.7532 26.0129C18.5113 26.1132 18.2519 26.1649 17.99 26.1649C17.7281 26.1649 17.4687 26.1132 17.2268 26.0129C16.9848 25.9125 16.765 25.7654 16.58 25.58L9.4 18.4C9.02604 18.026 8.81596 17.5189 8.81596 16.99C8.81596 16.4611 9.02604 15.954 9.4 15.58C9.77395 15.206 10.2811 14.996 10.81 14.996C11.3389 14.996 11.846 15.206 12.22 15.58L16 19.34V2C16 0.9 16.9 0 18 0C19.1 0 20 0.9 20 2V19.34Z" fill="#D2D2D2"/>
</svg>
